<?xml version="1.0" standalone="no"?>
<!DOCTYPE svg PUBLIC "-//W3C//DTD SVG 20010904//EN"
 "http://www.w3.org/TR/2001/REC-SVG-20010904/DTD/svg10.dtd">
<svg version="1.0" xmlns="http://www.w3.org/2000/svg"
 width="400.000000pt" height="400.000000pt" viewBox="0 0 400.000000 400.000000"
 preserveAspectRatio="xMidYMid meet">

<g transform="translate(0.000000,400.000000) scale(0.100000,-0.100000)"
fill="#2d88ed" stroke="none">
<path d="M1870 3989 c-713 -43 -1349 -472 -1665 -1124 -135 -277 -196 -545
-196 -860 -1 -326 58 -584 196 -870 199 -412 517 -730 930 -930 279 -135 549
-197 865 -197 316 0 586 62 865 197 413 200 731 518 930 930 137 284 196 543
196 866 0 232 -25 395 -93 609 -164 513 -537 944 -1023 1181 -318 155 -646
219 -1005 198z m-715 -1028 c66 -33 174 -94 240 -136 66 -42 179 -104 250
-140 318 -157 507 -332 566 -526 29 -96 23 -217 -15 -309 -71 -173 -269 -390
-569 -623 -55 -43 -126 -101 -156 -128 -137 -122 -331 -162 -479 -99 -128 55
-234 243 -233 415 0 121 116 291 315 463 53 46 96 85 96 87 0 2 -114 75 -254
164 -233 148 -257 166 -295 220 -81 116 -104 210 -82 337 17 93 41 144 97 204
53 57 138 102 224 119 30 6 64 13 75 15 48 11 106 -6 220 -63z m2109 -1430
c72 -29 141 -90 157 -139 14 -43 17 -151 6 -205 -10 -48 -67 -112 -126 -142
-70 -35 -138 -45 -300 -45 -81 0 -219 -7 -307 -16 -257 -26 -326 -12 -390 75
-38 53 -74 154 -74 209 0 46 38 128 76 164 60 55 175 98 320 117 38 5 184 8
324 7 242 -2 258 -3 314 -25z"/>
</g>
</svg>
